<svg xmlns="http://www.w3.org/2000/svg" width="89.6" height="88" viewBox="0 0 89.6 88">
  <style type="text/css">
    .st0 {
      fill: #666d89;
    }
  </style>
  <path class="st0"
        d="M74.6,34.41L74.6,19.41L65.1,19.41L65.1,34.41L50.1,34.41L50.1,43.91L65.1,43.91L65.1,58.91L74.6,58.91L74.6,43.91L89.6,43.91L89.6,34.41ZM35.86,17.13C38.12,25.06 34.71,33.36 29.28,34.88C28.66,35.06 28.01,35.15 27.36,35.15C22.39,35.15 17.46,30.12 15.64,23.19C14.62,19.3 14.7,15.89 15.87,12.62C17.02,9.4 19.08,7.23 21.68,6.5C22.31,6.32 22.96,6.23 23.61,6.23C29.61,6.23 33.47,8.72 35.86,17.13M41.87,67C42.31,74.04 36.29,79.22 27.26,79.88C18.08,80.55 10.53,76.42 10.09,69.4C9.88,66.02 11.36,62.71 14.27,60.08C17.22,57.41 21.26,55.77 25.66,55.44C26.18,55.41 26.7,55.39 27.21,55.39C35.7,55.39 41.45,60.38 41.87,67M4.75,21.94C4.75,29.41 7.24,34.8 12.16,37.97C16.19,40.56 20.86,40.95 23.29,40.95C23.88,40.95 24.35,40.93 24.68,40.9C24.68,40.9 23.91,45.92 27.63,50.88L27.46,50.88C21.02,50.88 0,52.23 0,69.51C0,87.1 19.3,87.99 23.18,87.99C23.48,87.99 23.66,87.98 23.66,87.98C23.7,87.98 23.98,88 24.45,88C26.93,88 33.36,87.68 39.33,84.78C47.07,81.02 51,74.49 51,65.36C51,56.53 45.01,51.28 40.65,47.44C37.98,45.1 35.68,43.08 35.68,41.12C35.68,39.12 37.36,37.61 39.49,35.71C42.93,32.63 46.18,28.24 46.18,19.95C46.18,12.67 45.23,7.78 39.41,4.67C40.02,4.36 42.16,4.14 43.23,3.99C46.38,3.56 51,3.07 51,0.49L51,0L28,0C27.77,0 4.75,0.85 4.75,21.94"/>
</svg>
