<svg xmlns="http://www.w3.org/2000/svg" width="92" height="74.76" viewBox="0 0 92 74.76">
  <style type="text/css">
    .st0 {
      fill: #666d89;
    }
  </style>
  <path class="st0"
        d="M92,8.84C88.61,10.35 84.97,11.36 81.15,11.82C85.05,9.48 88.04,5.78 89.45,1.37C85.81,3.54 81.77,5.11 77.47,5.95C74.02,2.29 69.12,0 63.69,0C53.27,0 44.81,8.45 44.81,18.87C44.81,20.35 44.98,21.79 45.3,23.17C29.62,22.38 15.71,14.87 6.4,3.45C4.77,6.24 3.84,9.48 3.84,12.94C3.84,19.49 7.18,25.26 12.24,28.65C9.15,28.55 6.23,27.7 3.69,26.29C3.69,26.37 3.69,26.45 3.69,26.53C3.69,35.67 10.2,43.3 18.83,45.03C17.25,45.46 15.58,45.7 13.86,45.7C12.64,45.7 11.46,45.58 10.31,45.36C12.71,52.86 19.68,58.31 27.94,58.46C21.48,63.53 13.34,66.55 4.5,66.55C2.97,66.55 1.47,66.46 0,66.28C8.35,71.64 18.27,74.76 28.93,74.76C63.65,74.76 82.63,46 82.63,21.06C82.63,20.24 82.61,19.43 82.58,18.61C86.26,15.95 89.46,12.63 92,8.84"/>
</svg>
